<svg width="126" height="100" viewBox="0 0 126 100" fill="none" xmlns="http://www.w3.org/2000/svg">
<path d="M125.493 49.9986C125.493 36.7382 120.225 24.0208 110.849 14.6442C101.472 5.2677 88.7549 1.7389e-06 75.4945 0C62.2341 -1.73889e-06 49.5168 5.2677 40.1403 14.6442C30.7637 24.0208 25.496 36.7382 25.496 49.9986H41.1207C46.2983 49.9986 50.3361 45.6597 52.2326 40.8418C53.4777 37.6787 55.367 34.7718 57.8172 32.3213C62.5055 27.6331 68.8643 24.9993 75.4945 24.9993C82.1247 24.9993 88.4835 27.6331 93.1718 32.3213C97.8601 37.0096 100.494 43.3684 100.494 49.9986H125.493Z" fill="url(#paint0_linear_30_23257)"/>
<path d="M96.6907 69.1352C99.2034 63.069 100.497 56.5674 100.497 50.0017H125.493C125.493 77.6151 103.108 100 75.4948 100C71.1704 100 66.9739 99.4511 62.9722 98.4191C65.2364 97.8357 67.4619 97.0928 69.6317 96.1942C75.6978 93.6815 81.2096 89.9988 85.8525 85.3559C90.4953 80.7131 94.1783 75.2013 96.6907 69.1352Z" fill="#87A2FB"/>
<path d="M0.499878 49.9955C0.499877 56.5615 1.79313 63.0631 4.30578 69.1293C6.81846 75.1954 10.5013 80.7072 15.1441 85.35C19.7869 89.9926 25.2987 93.6756 31.3648 96.1883C37.4308 98.701 43.9324 99.9941 50.4985 99.9941C57.0642 99.9941 63.5658 98.701 69.6319 96.1883C75.6981 93.6756 81.2099 89.9926 85.8527 85.35C90.4955 80.7072 94.1782 75.1954 96.6909 69.1293C99.2036 63.0631 100.497 56.5615 100.497 49.9955H84.8722C79.6947 49.9955 75.6568 54.3344 73.7604 59.1519C73.7065 59.2892 73.6511 59.4259 73.5947 59.5625C72.3383 62.5954 70.497 65.3515 68.1754 67.6728C65.8542 69.994 63.0981 71.8357 60.0652 73.092C57.0323 74.3484 53.7815 74.9949 50.4985 74.9949C47.2155 74.9949 43.9647 74.3484 40.9317 73.092C37.8985 71.8357 35.1428 69.994 32.8212 67.6728C30.4998 65.3515 28.6584 62.5954 27.4021 59.5625C26.1458 56.5293 25.4991 53.2785 25.4991 49.9955H0.499878Z" fill="url(#paint1_linear_30_23257)"/>
<path d="M0.504639 49.9986C0.504639 22.385 22.8897 0 50.503 0C54.8264 0 59.0215 0.548716 63.023 1.58035C54.437 3.79217 46.5167 8.26832 40.1404 14.6443C30.7639 24.0207 25.4963 36.7382 25.4963 49.9986H0.504639Z" fill="#87A2FB"/>
<defs>
<linearGradient id="paint0_linear_30_23257" x1="125.493" y1="24.9993" x2="25.496" y2="24.9993" gradientUnits="userSpaceOnUse">
<stop stop-color="#ADDDD0"/>
<stop offset="1" stop-color="#DBCDF1"/>
</linearGradient>
<linearGradient id="paint1_linear_30_23257" x1="0.499881" y1="74.9949" x2="100.497" y2="74.9949" gradientUnits="userSpaceOnUse">
<stop stop-color="#F8BCC6"/>
<stop offset="1" stop-color="#6F38C5"/>
</linearGradient>
</defs>
</svg>
