<svg width="20" height="20" viewBox="0 0 20 20" fill="none" xmlns="http://www.w3.org/2000/svg">
<path d="M9.9091 11.9939L17.7531 11.9953C18.9957 11.9953 20.0031 13.0026 20.0031 14.2453V15.1504C20.0031 16.244 19.5256 17.2832 18.6958 17.9956C17.1303 19.3396 14.89 19.9964 12 19.9964L11.821 19.9953C12.0547 19.5247 12.0634 18.9709 11.8473 18.4941L12 18.4964C14.56 18.4964 16.4578 17.94 17.7187 16.8575C18.2166 16.4301 18.5031 15.8066 18.5031 15.1504V14.2453C18.5031 13.8311 18.1673 13.4953 17.7531 13.4953H9.9775C9.9924 13.3301 10 13.1633 10 12.9954C10 12.6534 9.9688 12.3187 9.9091 11.9939ZM4.5 8.49542C6.98528 8.49542 9 10.5101 9 12.9954C9 14.0892 8.6097 15.0918 7.96089 15.8717L10.7827 18.686C11.076 18.9785 11.0766 19.4534 10.784 19.7466C10.5181 20.0132 10.1014 20.0379 9.8076 19.8204L9.7234 19.7479L6.82025 16.8518C6.14274 17.2603 5.34881 17.4954 4.5 17.4954C2.01472 17.4954 0 15.4806 0 12.9954C0 10.5101 2.01472 8.49542 4.5 8.49542ZM4.5 9.99542C2.84315 9.99542 1.5 11.3385 1.5 12.9954C1.5 14.6522 2.84315 15.9954 4.5 15.9954C6.15685 15.9954 7.5 14.6522 7.5 12.9954C7.5 11.3385 6.15685 9.99542 4.5 9.99542ZM12 0C14.7614 0 17 2.23858 17 5C17 7.76143 14.7614 10 12 10C9.2386 10 7 7.76143 7 5C7 2.23858 9.2386 0 12 0ZM12 1.5C10.067 1.5 8.5 3.06701 8.5 5C8.5 6.933 10.067 8.50002 12 8.50002C13.933 8.50002 15.5 6.933 15.5 5C15.5 3.06701 13.933 1.5 12 1.5Z" fill="black"/>
</svg>
