<svg width="26" height="24" viewBox="0 0 26 24" fill="none" xmlns="http://www.w3.org/2000/svg">
<path fill-rule="evenodd" clip-rule="evenodd" d="M3.0039 5.63803C2.66248 6.27976 2.66248 7.11984 2.66248 8.8V15.2C2.66248 16.8802 2.66248 17.7202 3.0039 18.362C3.30422 18.9265 3.78343 19.3854 4.37285 19.673C5.04292 20 5.9201 20 7.67446 20H18.5338C20.2881 20 21.1653 20 21.8354 19.673C22.4248 19.3854 22.904 18.9265 23.2043 18.362C23.5458 17.7202 23.5458 16.8802 23.5458 15.2V8.8C23.5458 7.11984 23.5458 6.27976 23.2043 5.63803C22.904 5.07354 22.4248 4.6146 21.8354 4.32698C21.1653 4 20.2881 4 18.5338 4H7.67446C5.9201 4 5.04292 4 4.37285 4.32698C3.78343 4.6146 3.30422 5.07354 3.0039 5.63803ZM8.47397 8.17538C7.99843 7.86296 7.34848 7.97889 7.02226 8.43431C6.69604 8.88974 6.81709 9.5122 7.29262 9.82462L11.3321 12.4785C12.3999 13.18 13.8083 13.18 14.8761 12.4785L18.9156 9.82462C19.3911 9.5122 19.5122 8.88974 19.186 8.43431C18.8598 7.97889 18.2098 7.86296 17.7343 8.17538L13.6948 10.8293C13.3389 11.0631 12.8694 11.0631 12.5134 10.8293L8.47397 8.17538Z" fill="#626262"/>
</svg>
