<svg width="24" height="24" viewBox="0 0 24 24" fill="none" xmlns="http://www.w3.org/2000/svg">
<rect width="24" height="24" rx="12" fill="white"/>
<path fill-rule="evenodd" clip-rule="evenodd" d="M13.4829 7.10829C13.1441 7.52995 12.5753 7.8462 12.1214 7.8462C12.0703 7.8462 12.0191 7.83961 11.9872 7.83302C11.9808 7.80667 11.968 7.72761 11.968 7.64854C11.968 7.10829 12.2301 6.58122 12.5177 6.2452C12.8821 5.80378 13.4893 5.47436 13.9943 5.45459C14.0071 5.51389 14.0135 5.58636 14.0135 5.65883C14.0135 6.1925 13.7897 6.72616 13.4829 7.10829ZM11.26 15.6218C11.0322 15.7227 10.8163 15.8182 10.5234 15.8182C9.89698 15.8182 9.46233 15.2253 8.96375 14.5005C8.38207 13.644 7.90906 12.3198 7.90906 11.068C7.90906 9.05189 9.18107 7.98456 10.4339 7.98456C10.7996 7.98456 11.1337 8.12276 11.4308 8.24565C11.6686 8.34401 11.8827 8.43257 12.0703 8.43257C12.233 8.43257 12.4357 8.34999 12.672 8.25374C13.0021 8.1193 13.3976 7.9582 13.8409 7.9582C14.1221 7.9582 15.1512 7.98456 15.8288 8.986C15.8249 8.98911 15.8166 8.99475 15.8046 9.00296C15.6379 9.1164 14.7485 9.72151 14.7485 10.9625C14.7485 12.4976 16.0461 13.0445 16.0909 13.0577C16.0897 13.0606 16.0871 13.0691 16.0829 13.0825C16.0402 13.2186 15.8369 13.8673 15.4005 14.5269C14.9723 15.1594 14.5184 15.805 13.8409 15.805C13.5069 15.805 13.2941 15.7079 13.0744 15.6076C12.84 15.5006 12.5976 15.39 12.1917 15.39C11.7837 15.39 11.5144 15.5092 11.26 15.6218Z" fill="black"/>
</svg>
